<svg id="Layer_1" data-name="Layer 1" xmlns="http://www.w3.org/2000/svg" viewBox="0 0 1021.762 343.71"><defs><style>.cls-1{fill:none;stroke:#000;stroke-miterlimit:10;stroke-width:31.041px;}</style></defs><path d="M702.525,491.663c0,114.569-69.63,175.312-154.57,175.312-87.9,0-149.632-68.15-149.632-168.892,0-105.681,65.68-174.818,154.571-174.818C643.759,323.265,702.525,392.9,702.525,491.663ZM444.25,497.1c0,71.112,38.519,134.817,106.174,134.817,68.15,0,106.669-62.718,106.669-138.274,0-66.174-34.569-135.311-106.175-135.311C479.806,358.327,444.25,424.007,444.25,497.1Z" transform="translate(-398.323 -323.265)"/><path d="M1420.085,491.663c0,114.569-69.631,175.312-154.57,175.312-87.9,0-149.632-68.15-149.632-168.892,0-105.681,65.679-174.818,154.57-174.818C1361.318,323.265,1420.085,392.9,1420.085,491.663ZM1161.81,497.1c0,71.112,38.518,134.817,106.174,134.817,68.149,0,106.668-62.718,106.668-138.274,0-66.174-34.568-135.311-106.174-135.311C1197.365,358.327,1161.81,424.007,1161.81,497.1Z" transform="translate(-398.323 -323.265)"/><path class="cls-1" d="M743.029,516.6" transform="translate(-398.323 -323.265)"/><polyline class="cls-1" points="344.705 114.326 642.414 114.326 560.579 24.026"/><polyline class="cls-1" points="461.551 306.214 379.716 215.914 677.424 215.914"/><path class="cls-1" d="M743.029,516.6" transform="translate(-398.323 -323.265)"/></svg>