<?xml version="1.0" standalone="no"?>
<!DOCTYPE svg PUBLIC "-//W3C//DTD SVG 20010904//EN"
 "http://www.w3.org/TR/2001/REC-SVG-20010904/DTD/svg10.dtd">
<svg version="1.0" xmlns="http://www.w3.org/2000/svg"
 width="1784.000000pt" height="1784.000000pt" viewBox="0 0 1784.000000 1784.000000"
 preserveAspectRatio="xMidYMid meet">
<metadata>
Created by potrace 1.11, written by Peter Selinger 2001-2013
</metadata>
<g transform="translate(0.000000,1784.000000) scale(0.100000,-0.100000)"
fill="#000000" stroke="none">
<path d="M2488 11915 c-1 -1 -34 -6 -73 -9 -38 -3 -79 -8 -90 -10 -11 -2 -42
-7 -68 -10 -159 -24 -339 -70 -511 -133 -106 -39 -379 -170 -384 -184 -2 -5
-8 -9 -13 -9 -6 0 -37 -18 -69 -40 -32 -22 -64 -40 -69 -40 -6 0 -11 -5 -11
-10 0 -6 -8 -14 -17 -17 -70 -26 -381 -317 -506 -473 -82 -101 -220 -308 -271
-403 -20 -38 -43 -78 -51 -90 -8 -12 -15 -26 -16 -32 -2 -10 -30 -74 -70 -162
-10 -23 -19 -46 -19 -50 0 -4 -6 -20 -14 -35 -15 -29 -41 -103 -36 -103 2 0
-2 -10 -8 -21 -17 -32 -79 -245 -98 -339 -2 -11 -6 -31 -9 -45 -13 -60 -16
-77 -21 -110 -2 -19 -7 -44 -11 -55 -3 -11 -7 -31 -8 -45 -4 -34 -15 -119 -20
-155 -27 -178 -27 -711 0 -920 3 -22 7 -58 10 -80 3 -22 7 -51 9 -65 3 -14 7
-41 10 -60 5 -36 41 -208 55 -270 5 -19 21 -73 35 -120 14 -47 28 -92 30 -100
2 -8 12 -35 21 -60 9 -25 17 -49 19 -55 2 -5 8 -21 13 -35 6 -14 21 -50 33
-80 65 -164 233 -461 329 -583 153 -193 311 -357 431 -447 18 -14 42 -33 54
-42 11 -10 26 -21 31 -26 104 -82 392 -238 545 -295 108 -40 131 -49 145 -53
6 -1 42 -12 80 -23 39 -12 79 -23 90 -26 179 -38 225 -46 380 -62 88 -10 469
-10 555 0 118 13 190 24 285 43 131 26 363 93 460 134 249 104 502 254 663
394 106 92 144 127 203 190 115 122 299 357 299 380 0 4 5 12 10 19 16 19 53
79 70 112 8 17 17 32 21 35 3 3 11 20 18 38 8 17 18 32 24 32 6 0 8 3 4 6 -3
3 7 31 23 63 15 31 42 90 60 131 17 41 35 84 40 95 36 80 131 421 155 555 2
14 9 48 14 77 6 29 13 74 16 100 3 26 8 64 12 83 7 41 8 44 19 170 17 189 8
826 -12 861 -2 3 -6 33 -9 66 -3 33 -8 71 -10 84 -3 13 -8 40 -11 59 -3 19
-12 67 -20 105 -8 39 -17 81 -20 95 -47 229 -205 637 -317 817 -13 21 -26 45
-29 53 -9 23 -149 223 -204 291 -99 124 -313 330 -427 412 -23 17 -44 33 -47
36 -3 4 -30 22 -60 41 -30 19 -57 37 -60 40 -13 13 -266 143 -340 174 -98 41
-306 108 -380 122 -14 3 -41 9 -60 14 -19 5 -51 11 -70 14 -19 3 -44 7 -55 10
-22 4 -97 14 -166 23 -49 6 -505 13 -511 8z m397 -619 c28 -4 57 -8 65 -10 8
-1 33 -6 55 -11 196 -37 429 -133 568 -231 26 -19 50 -34 53 -34 3 0 11 -6 19
-12 7 -7 32 -29 56 -48 117 -92 258 -246 350 -380 24 -36 47 -66 52 -68 4 -2
7 -8 7 -14 0 -5 8 -22 19 -36 31 -45 111 -202 156 -307 82 -192 159 -461 189
-665 3 -19 8 -46 11 -60 2 -14 7 -48 9 -75 3 -28 8 -81 12 -120 15 -145 9
-536 -11 -695 -16 -124 -29 -207 -40 -260 -3 -14 -7 -36 -10 -50 -12 -65 -66
-267 -82 -310 -4 -8 -7 -17 -8 -20 -30 -111 -162 -405 -216 -482 -11 -14 -19
-29 -19 -32 0 -10 -121 -179 -168 -236 -73 -86 -205 -214 -279 -269 -37 -28
-72 -54 -78 -58 -47 -37 -315 -180 -315 -169 0 3 -24 -5 -52 -15 -67 -26 -65
-25 -184 -53 -233 -55 -568 -55 -774 0 -30 8 -62 16 -70 18 -49 12 -106 29
-115 34 -5 4 -15 7 -22 8 -55 9 -413 211 -413 234 0 5 -9 11 -19 15 -23 7
-211 189 -273 265 -113 137 -248 362 -318 530 -17 41 -37 89 -44 105 -15 32
-64 179 -71 211 -2 10 -15 62 -29 114 -13 52 -27 109 -30 125 -3 17 -7 41 -11
55 -8 37 -13 70 -20 120 -3 25 -7 63 -10 85 -14 110 -19 227 -19 400 0 177 10
390 18 404 2 3 7 40 10 80 4 41 9 78 11 82 3 3 7 31 11 60 3 30 9 58 11 62 3
5 7 23 10 40 19 133 114 431 186 589 14 29 27 60 31 68 28 67 183 319 233 377
10 11 33 40 52 63 54 66 177 185 258 250 84 68 254 164 393 223 52 22 187 63
251 76 55 12 81 15 189 27 30 3 56 7 58 8 5 6 307 -2 357 -8z"/>
<path d="M15019 11915 c-2 -1 -33 -5 -69 -9 -82 -6 -206 -25 -280 -40 -14 -3
-36 -8 -50 -11 -14 -3 -36 -7 -50 -10 -47 -9 -260 -77 -320 -102 -8 -3 -17 -7
-20 -8 -33 -11 -66 -27 -190 -87 -80 -39 -171 -88 -202 -109 -31 -22 -62 -39
-67 -39 -6 0 -11 -4 -11 -10 0 -5 -6 -10 -14 -10 -8 0 -16 -3 -18 -7 -1 -5
-30 -28 -63 -52 -202 -150 -411 -363 -555 -566 -27 -38 -54 -75 -60 -82 -5 -7
-10 -15 -10 -18 0 -4 -13 -26 -30 -50 -16 -24 -30 -47 -30 -50 0 -4 -9 -19
-19 -34 -66 -93 -251 -521 -276 -641 -2 -8 -4 -15 -5 -15 -1 0 -3 -7 -5 -15
-1 -8 -9 -35 -16 -60 -7 -25 -14 -52 -15 -60 -2 -8 -10 -43 -18 -77 -9 -34
-18 -77 -21 -95 -3 -18 -8 -41 -11 -51 -7 -24 -14 -67 -29 -192 -4 -33 -9 -68
-10 -77 -20 -105 -28 -682 -12 -828 5 -41 11 -92 13 -112 11 -99 23 -180 39
-258 3 -14 8 -38 11 -55 10 -55 46 -199 65 -260 11 -33 21 -69 23 -80 4 -18
24 -77 46 -130 4 -11 23 -58 41 -105 39 -99 156 -333 199 -397 17 -24 30 -46
30 -48 0 -5 101 -151 117 -170 5 -5 27 -33 48 -60 203 -257 482 -485 780 -639
33 -17 63 -31 67 -31 4 0 13 -6 20 -12 6 -7 16 -13 21 -13 5 0 23 -6 40 -14
162 -72 421 -146 602 -171 22 -3 49 -8 60 -11 104 -25 622 -25 765 1 14 2 41
7 60 9 91 12 256 48 338 74 34 11 62 18 62 16 0 -3 14 2 30 11 17 9 30 12 30
8 0 -4 5 -2 12 5 7 7 19 12 27 12 9 1 34 9 56 20 22 11 44 19 48 20 30 1 389
187 407 210 3 4 16 13 29 20 14 7 30 17 35 21 6 5 45 34 86 65 194 147 376
333 512 527 32 45 62 87 66 92 5 6 32 51 61 100 28 50 56 97 61 105 5 8 16 29
24 45 7 17 31 68 53 115 76 162 133 318 189 525 9 31 32 136 38 170 9 49 15
76 20 93 3 9 8 37 11 62 3 25 8 56 10 70 2 14 7 48 10 75 4 28 8 64 10 80 27
200 26 740 0 946 -17 137 -36 263 -41 270 -2 4 -6 22 -8 40 -12 88 -110 431
-150 524 -7 17 -19 46 -26 65 -19 53 -136 294 -172 353 -51 86 -148 228 -201
297 -119 152 -285 317 -422 420 -33 25 -62 48 -65 51 -3 3 -54 37 -115 75
-183 116 -377 205 -590 271 -99 30 -99 30 -210 53 -88 18 -99 20 -140 26 -22
3 -51 8 -65 10 -14 3 -41 7 -60 9 -43 6 -526 15 -531 10z m381 -618 c19 -3 53
-8 75 -11 34 -5 65 -10 110 -20 6 -1 21 -5 35 -9 14 -4 43 -13 65 -18 22 -6
49 -15 60 -19 11 -4 36 -14 55 -21 67 -24 205 -93 263 -131 32 -21 63 -38 68
-38 5 0 9 -4 9 -8 0 -4 14 -16 31 -26 90 -53 399 -374 399 -414 0 -6 4 -12 9
-14 12 -4 131 -199 131 -214 0 -7 3 -14 8 -16 6 -3 25 -40 94 -184 11 -22 20
-47 22 -55 1 -8 7 -23 13 -34 6 -11 12 -23 12 -27 1 -4 4 -13 6 -20 69 -197
127 -437 150 -618 24 -186 28 -252 27 -470 0 -197 -5 -292 -17 -390 -4 -25 -9
-65 -12 -90 -7 -58 -11 -85 -13 -85 -1 0 -3 -17 -6 -37 -2 -21 -16 -86 -30
-145 -13 -60 -27 -119 -30 -132 -9 -43 -91 -285 -114 -336 -35 -80 -128 -266
-156 -314 -28 -49 -104 -163 -113 -171 -3 -3 -26 -32 -51 -64 -73 -96 -258
-276 -319 -310 -9 -5 -18 -12 -21 -15 -10 -12 -116 -80 -142 -92 -16 -7 -28
-16 -28 -21 0 -4 -5 -8 -10 -8 -6 0 -44 -16 -84 -35 -77 -36 -260 -100 -311
-108 -16 -3 -50 -10 -75 -16 -145 -33 -485 -34 -634 -1 -23 4 -58 11 -79 14
-21 4 -46 10 -55 15 -9 5 -30 11 -47 14 -68 13 -314 119 -323 140 -2 4 -8 7
-14 7 -17 0 -155 97 -238 166 -90 75 -289 284 -271 284 3 0 1 4 -5 8 -15 10
-104 140 -104 151 0 5 -4 11 -8 13 -21 8 -139 241 -192 378 -18 47 -36 94 -41
105 -6 17 -19 54 -24 75 -1 3 -5 12 -8 20 -7 17 -53 191 -61 230 -2 14 -10 50
-16 80 -6 30 -13 71 -16 90 -2 19 -7 51 -11 70 -3 19 -7 51 -9 70 -2 19 -7 67
-11 105 -10 96 -10 489 1 605 13 151 15 164 20 190 2 14 7 43 10 65 3 22 8 54
12 70 3 17 7 41 9 55 2 14 4 25 5 25 1 0 3 9 5 20 4 18 31 131 39 160 1 6 6
26 10 45 5 19 13 41 18 48 6 6 8 12 5 12 -16 0 91 278 156 405 17 33 30 63 29
68 -1 4 2 7 8 7 5 0 10 5 10 11 0 26 159 262 235 348 55 63 159 165 210 206
28 22 52 43 55 46 14 17 185 122 260 159 87 43 287 114 350 125 19 3 49 8 65
12 52 9 78 13 145 19 36 4 66 8 68 9 6 5 296 -3 332 -8z"/>
<path d="M9938 11638 c-25 -24 -66 -61 -90 -82 -103 -92 -192 -173 -225 -204
l-36 -33 24 -27 c13 -14 29 -31 34 -37 9 -10 117 -130 188 -207 12 -13 54 -60
92 -103 39 -43 86 -95 105 -115 19 -20 55 -59 79 -86 61 -69 181 -202 211
-234 40 -43 183 -201 203 -224 10 -12 32 -36 48 -53 16 -18 29 -34 29 -35 0
-2 -1031 -3 -2290 -3 l-2290 0 0 -40 c-1 -87 -1 -481 -1 -491 1 -7 879 -10
2901 -10 1595 0 2900 1 2900 3 0 3 -32 41 -70 83 -53 58 -176 193 -195 215
-11 12 -58 64 -105 115 -47 51 -93 102 -103 114 -18 21 -141 157 -186 205 -13
14 -55 62 -95 105 -39 43 -86 95 -105 115 -18 20 -53 59 -76 86 -24 28 -65 73
-92 101 -45 48 -179 195 -213 234 -8 9 -49 54 -90 100 -41 45 -79 88 -85 94
-5 7 -35 39 -65 72 -56 60 -201 221 -275 303 -49 55 -74 81 -78 81 -1 0 -23
-19 -49 -42z"/>
<path d="M6077 8422 c-27 -2 -47 -7 -45 -11 3 -7 42 -51 178 -201 14 -15 61
-67 105 -115 44 -49 89 -99 100 -111 11 -12 54 -59 95 -104 41 -46 80 -88 85
-94 6 -6 48 -53 95 -105 47 -52 94 -104 105 -116 27 -28 186 -203 205 -226 19
-21 155 -171 190 -209 14 -15 56 -62 95 -105 38 -42 81 -90 95 -105 14 -15 59
-64 100 -110 41 -46 84 -94 95 -106 11 -12 54 -59 95 -104 41 -46 86 -95 100
-110 14 -15 37 -41 53 -59 15 -17 31 -31 35 -31 4 0 28 18 52 41 25 22 74 66
109 97 35 31 87 79 115 105 28 27 66 60 84 74 17 14 32 32 32 40 0 8 -15 30
-32 48 -18 18 -64 67 -103 111 -38 43 -89 98 -112 123 -23 25 -50 56 -60 67
-10 12 -55 61 -100 110 -44 49 -92 101 -105 115 -12 15 -57 64 -98 109 -41 46
-84 93 -95 105 -116 128 -180 199 -232 254 -66 70 -75 86 -43 76 11 -3 20 -2
20 3 0 5 19 6 43 2 23 -3 53 -3 67 0 13 3 46 3 72 0 27 -4 48 -3 48 2 0 5 9 4
20 -2 11 -6 20 -7 20 -2 0 5 20 6 44 2 25 -4 51 -3 59 2 9 4 26 4 39 -1 13 -4
32 -5 43 -1 11 4 32 4 46 0 15 -4 32 -4 39 0 7 5 23 5 34 0 12 -4 29 -4 40 -1
10 4 40 4 66 1 25 -3 58 -3 72 1 14 4 31 3 38 -1 7 -4 24 -5 38 -1 14 4 47 4
74 1 26 -4 48 -3 48 2 0 5 9 4 20 -2 13 -7 20 -7 20 -1 0 7 9 7 23 3 12 -5 38
-5 57 -2 19 3 54 3 78 -1 23 -3 42 -2 42 3 0 5 9 4 20 -2 11 -6 20 -7 20 -2 0
5 20 6 44 2 25 -4 51 -3 59 2 9 4 26 4 39 -1 13 -4 32 -5 43 -1 11 4 32 4 46
0 15 -4 32 -4 39 0 7 5 23 5 34 0 12 -4 29 -4 40 -1 10 4 40 4 66 1 25 -3 58
-3 72 1 14 4 31 3 38 -1 7 -4 24 -5 38 -1 14 4 47 4 74 1 26 -4 48 -3 48 2 0
5 9 4 20 -2 13 -7 20 -7 20 -1 0 7 9 7 23 3 12 -5 38 -5 57 -2 19 3 54 3 78
-1 23 -3 42 -2 42 3 0 5 9 4 20 -2 11 -6 20 -7 20 -2 0 5 20 6 44 2 25 -4 51
-3 59 2 9 4 26 4 39 -1 13 -4 32 -5 43 -1 11 4 32 4 46 0 15 -4 32 -4 39 0 7
5 23 5 34 0 12 -4 29 -4 40 -1 10 4 40 4 66 1 25 -3 58 -3 72 1 14 4 31 3 38
-1 7 -4 24 -5 38 -1 14 4 47 4 74 1 26 -4 48 -3 48 2 0 5 9 4 20 -2 13 -7 20
-7 20 -1 0 7 9 7 23 3 12 -5 38 -5 57 -2 19 3 54 3 78 -1 23 -3 42 -2 42 3 0
5 9 4 20 -2 11 -6 20 -7 20 -2 0 5 20 6 44 2 25 -4 51 -3 59 2 9 4 26 4 39 -1
13 -4 32 -5 43 -1 11 4 32 4 46 0 15 -4 32 -4 39 0 7 5 23 5 34 0 12 -4 29 -4
40 -1 10 4 40 4 66 1 25 -3 58 -3 72 1 14 4 31 3 38 -1 7 -4 24 -5 38 -1 14 4
47 4 74 1 26 -4 48 -3 48 2 0 5 9 4 20 -2 12 -6 20 -7 20 -1 0 6 11 7 28 2 15
-4 38 -5 52 -1 13 3 46 3 72 0 27 -4 48 -3 48 2 0 5 9 4 20 -2 11 -6 20 -7 20
-2 0 5 20 6 45 2 24 -4 50 -3 56 1 7 4 24 5 38 2 14 -2 33 -4 41 -4 8 0 31 0
50 0 19 0 41 0 48 0 20 1 40 2 80 2 20 0 45 0 54 0 15 0 16 24 15 271 l-2 271
-2850 1 c-1567 0 -2872 0 -2898 -2z"/>
</g>
</svg>
